<svg id="SvgjsSvg1015" width="288" height="288" xmlns="http://www.w3.org/2000/svg" version="1.1" xmlns:xlink="http://www.w3.org/1999/xlink" xmlns:svgjs="http://svgjs.com/svgjs"><defs id="SvgjsDefs1016"></defs><g id="SvgjsG1017" transform="matrix(0.9167,0,0,0.9167,11.995200000000011,11.995200000000011)"><svg xmlns="http://www.w3.org/2000/svg" viewBox="0 0 64 64" width="288" height="288"><g data-name="Insta" fill="#ffffff" class="color000 svgShape"><path fill="#222222" d="M43.34 22.66a2 2 0 0 1-2-2 1.72 1.72 0 0 1 0-.39 2.38 2.38 0 0 1 .11-.38 1.63 1.63 0 0 1 .19-.34 1.42 1.42 0 0 1 .25-.3 2 2 0 0 1 1.8-.55 1.58 1.58 0 0 1 .37.11 1.48 1.48 0 0 1 .35.19 1.42 1.42 0 0 1 .3.25 2 2 0 0 1 .59 1.41 1.72 1.72 0 0 1 0 .39 1.45 1.45 0 0 1-.11.37 2.31 2.31 0 0 1-.18.35 1.87 1.87 0 0 1-.26.3A2 2 0 0 1 43.34 22.66zM32 41.17A9.17 9.17 0 1 1 41.17 32 9.18 9.18 0 0 1 32 41.17zm0-16.34A7.17 7.17 0 1 0 39.17 32 7.18 7.18 0 0 0 32 24.83z" class="color222 svgShape"></path><path fill="#222222" d="M32,55A23,23,0,1,1,55,32,23,23,0,0,1,32,55Zm0-44A21,21,0,1,0,53,32,21,21,0,0,0,32,11Z" class="color222 svgShape"></path></g></svg></g></svg>